<svg id="SvgjsSvg1042" xmlns="http://www.w3.org/2000/svg" version="1.1" xmlns:xlink="http://www.w3.org/1999/xlink" xmlns:svgjs="http://svgjs.com/svgjs" width="33" height="34" viewBox="0 0 33 34"><title>Shape</title><desc>Created with Avocode.</desc><defs id="SvgjsDefs1043"></defs><path id="SvgjsPath1044" d="M1712.72 320.66C1712.72 320.1 1712.66 319.56 1712.6000000000001 319.04L1716.1200000000001 316.28000000000003C1716.44 316.04 1716.5200000000002 315.58000000000004 1716.3200000000002 315.22L1712.9800000000002 309.46000000000004C1712.7800000000002 309.08000000000004 1712.3400000000001 308.96000000000004 1711.9600000000003 309.08000000000004L1707.8200000000002 310.76000000000005C1706.94 310.08000000000004 1706.0200000000002 309.54 1705.0000000000002 309.12000000000006L1704.3600000000001 304.70000000000005C1704.3200000000002 304.30000000000007 1703.96 304.00000000000006 1703.5400000000002 304.00000000000006H1696.88C1696.46 304.00000000000006 1696.1200000000001 304.30000000000007 1696.0600000000002 304.70000000000005L1695.4400000000003 309.12000000000006C1694.4200000000003 309.5400000000001 1693.4800000000002 310.1000000000001 1692.6200000000003 310.76000000000005L1688.4600000000003 309.08000000000004C1688.0800000000002 308.94000000000005 1687.6400000000003 309.08000000000004 1687.4400000000003 309.46000000000004L1684.1200000000003 315.22C1683.9000000000003 315.58000000000004 1684.0000000000005 316.04 1684.3200000000004 316.28000000000003L1687.8400000000004 319.04C1687.7600000000004 319.56 1687.7200000000005 320.12 1687.7200000000005 320.66C1687.7200000000005 321.22 1687.7600000000004 321.76000000000005 1687.8400000000004 322.3L1684.3200000000004 325.06C1684.0000000000005 325.3 1683.9200000000003 325.76 1684.1200000000003 326.12L1687.4400000000003 331.88C1687.6400000000003 332.26 1688.1000000000004 332.38 1688.4600000000003 332.26L1692.6200000000003 330.58C1693.4800000000002 331.26 1694.4200000000003 331.8 1695.4400000000003 332.21999999999997L1696.0600000000002 336.64C1696.1200000000001 337.03999999999996 1696.4600000000003 337.34 1696.88 337.34H1703.5400000000002C1703.9600000000003 337.34 1704.3200000000002 337.03999999999996 1704.3600000000001 336.64L1705.0000000000002 332.21999999999997C1706.0200000000002 331.79999999999995 1706.9400000000003 331.23999999999995 1707.8200000000002 330.58L1711.9600000000003 332.26C1712.3400000000004 332.4 1712.7800000000002 332.26 1712.9800000000002 331.88L1716.3200000000002 326.12C1716.5200000000002 325.76 1716.44 325.3 1716.1200000000001 325.06L1712.6000000000001 322.3C1712.66 321.76 1712.72 321.24 1712.72 320.66ZM1694.38 320.66C1694.38 317.46000000000004 1697 314.84000000000003 1700.22 314.84000000000003C1703.44 314.84000000000003 1706.04 317.46000000000004 1706.04 320.66C1706.04 323.88000000000005 1703.44 326.5 1700.22 326.5C1697 326.5 1694.38 323.88 1694.38 320.66Z " fill="#b2b2b2" fill-opacity="1" transform="matrix(1,0,0,1,-1684,-304)"></path></svg>